<svg width="30" height="50" viewBox="0 0 30 50" fill="none" xmlns="http://www.w3.org/2000/svg">
<path d="M14.7072 0C6.59752 0 0 6.59752 0 14.7072V35.2928C0 43.4025 6.59752 50 14.7072 50C22.8168 50 29.4144 43.4025 29.4144 35.2928V14.7072C29.4144 6.59752 22.8168 0 14.7072 0ZM26.4145 35.2928C26.4145 41.748 21.1624 47.0001 14.7072 47.0001C8.25195 47.0001 2.99988 41.748 2.99988 35.2928V14.7072C2.99988 8.25195 8.25195 2.99988 14.7072 2.99988C21.1624 2.99988 26.4145 8.25195 26.4145 14.7072V35.2928Z" fill="white"/>
<path d="M14.7076 9.94644C13.879 9.94644 13.2076 10.6178 13.2076 11.4464V18.3502C13.2076 19.1784 13.879 19.8502 14.7076 19.8502C15.5358 19.8502 16.2075 19.1784 16.2075 18.3502V11.4464C16.2075 10.6178 15.5361 9.94644 14.7076 9.94644Z" fill="white"/>
</svg>
